<?xml version="1.0" encoding="UTF-8"?>
<svg id="logo" xmlns="http://www.w3.org/2000/svg" viewBox="0 0 1450.32 326.3">
  <defs>
    <style>
      .cls-1 {
        font-family: RobotoCondensed-Bold, 'Roboto Condensed';
        font-size: 176.05px;
        font-weight: 700;
      }

      .cls-2 {
        letter-spacing: -.07em;
      }

      .cls-2, .cls-3, .cls-4, .cls-5, .cls-6 {
        fill: #b6914d;
      }

      .cls-7, .cls-3 {
        letter-spacing: -.01em;
      }

      .cls-7, .cls-8, .cls-9, .cls-10 {
        fill: #471d19;
      }

      .cls-11 {
        letter-spacing: .65em;
      }

      .cls-5 {
        letter-spacing: -.1em;
      }

      .cls-12 {
        font-family: RobotoCondensed-Regular, 'Roboto Condensed';
        font-size: 55.76px;
      }

      .cls-12, .cls-13 {
        fill: #818452;
      }

      .cls-8 {
        letter-spacing: -.03em;
      }

      .cls-14 {
        letter-spacing: .64em;
      }

      .cls-9 {
        letter-spacing: -.08em;
      }

      .cls-13, .cls-6 {
        fill-rule: evenodd;
      }

      .cls-10, .cls-15 {
        letter-spacing: 0em;
      }
    </style>
  </defs>
  <rect class="cls-4" x="272.3" y="31.4" width="13.27" height="263.5"/>
  <g>
    <path class="cls-13" d="M117.65,39.7c-.72-.72-1.91-.86-2.77-.4-.92,.53-1.45,1.58-1.25,2.57,13.89,68.42-16.86,144.08,14.03,222.5,.4,.92,1.25,1.51,2.24,1.45l1.38,.07c29.57-.07,54.79-15.8,67.89-42.21,9.09-18.44,12.51-38.98,10.34-58.93-.13-.92-.66-1.71-1.58-1.98-.86-.33-1.84-.13-2.5,.53l-73.09,73.09c-.79,.79-1.98,.92-2.9,.4-.99-.59-1.38-1.78-1.05-2.77,.46-1.38,1.25-2.7,2.37-3.82l56.04-56.04c15.28-15.28,17.58-38.65,5.66-56.63-.4-.53-.72-1.12-1.05-1.58-.46-.59-1.05-.92-1.78-.99s-1.32,.13-1.84,.66l-61.5,61.5c-.79,.79-2.04,.86-3.03,.26-.92-.66-1.25-1.78-.86-2.83,.53-1.45,1.45-2.9,2.63-4.08l44.97-44.97c9.15-9.15,9.22-24.23,0-33.45-3.42-3.42-6.91-6.91-10.4-10.4-.92-.92-2.44-.86-3.36,.07l-26.54,26.54c-.79,.79-1.98,.92-2.96,.33-.92-.66-1.32-1.84-.92-2.9,.59-1.51,1.51-2.83,2.7-4.02l12.12-12.12c7.38-7.38,7.38-19.49,0-26.87l-22.98-22.98h0Z"/>
    <path class="cls-6" d="M40.14,92.05c-9.22,9.22-9.22,24.23,0,33.45l38.65,38.65c1.19,1.19,2.11,2.63,2.63,4.08,.4,1.05,.07,2.3-.86,2.83-.92,.66-2.24,.53-3.03-.26L22.36,115.62c-.53-.53-1.19-.79-1.91-.72-.72,.07-1.32,.4-1.71,1.05-.4,.53-.72,.99-1.05,1.58-11.98,18.04-9.61,41.35,5.66,56.63l50.51,50.51c1.12,1.12,1.91,2.44,2.37,3.82,.26,1.05-.13,2.24-1.05,2.77-.99,.59-2.11,.4-2.9-.4L4.72,163.29c-.72-.72-1.65-.86-2.5-.53-.92,.26-1.51,.99-1.58,1.98-2.17,19.95,1.25,40.5,10.27,58.87,12.25,24.76,35.03,40.04,62.03,42.01,.99,.07,1.84,.79,2.11,1.71,5.53,19.49,19.62,41.22,40.1,58.41,.92,.79,2.17,.72,3.09-.07,.92-.92,.99-2.3,.2-3.23C32.64,213.34,144.05,110.88,95.19,1.44c-.46-1.12-1.71-1.71-2.9-1.32-1.19,.4-1.91,1.65-1.58,2.9,4.48,17.52,4.87,33.58-.59,39.05l-20.68,20.68c-7.38,7.38-7.38,19.36,0,26.73l20.61,20.61c1.19,1.19,2.11,2.5,2.7,4.02,.4,1.05,0,2.24-.92,2.9-.99,.59-2.17,.46-2.96-.33l-34.97-34.97c-.92-.92-2.5-.92-3.42,0-3.42,3.42-6.91,6.91-10.34,10.34h0Z"/>
  </g>
  <text class="cls-1" transform="translate(338.06 226.44) scale(1.02 1)"><tspan class="cls-10" x="0" y="0">ONE </tspan><tspan class="cls-8" x="333.97" y="0">W</tspan><tspan class="cls-9" x="460.39" y="0">A</tspan><tspan class="cls-7" x="550.86" y="0">Y</tspan><tspan class="cls-15" x="644.61" y="0"> </tspan><tspan class="cls-5" x="683.42" y="0">P</tspan><tspan class="cls-2" x="766.51" y="0">A</tspan><tspan class="cls-3" x="859.56" y="0">TH</tspan></text>
  <text class="cls-12" transform="translate(709.57 306.15) scale(1.02 1)"><tspan class="cls-11" x="0" y="0">COMMUN</tspan><tspan class="cls-14" x="432.63" y="0">I</tspan><tspan class="cls-11" x="482.03" y="0">TIES</tspan></text>
</svg>